<svg id="Group_17242" data-name="Group 17242" xmlns="http://www.w3.org/2000/svg" xmlns:xlink="http://www.w3.org/1999/xlink" width="43.376" height="14" viewBox="0 0 43.376 14">
  <defs>
    <clipPath id="clip-path">
      <rect id="Rectangle_18753" data-name="Rectangle 18753" width="43.376" height="14" fill="none"/>
    </clipPath>
  </defs>
  <g id="Group_17241" data-name="Group 17241" clip-path="url(#clip-path)">
    <path id="Path_41520" data-name="Path 41520" d="M570.535,18.087h-3.221l-.419-2c-.1-.027-4.22-.038-4.51-.012-.016.037-.036.08-.052.124q-.324.894-.647,1.788c-.037.1-.038.1-.143.1H558.1c-.028,0-.056,0-.084,0-.027-.05.007-.088.023-.125q.41-.983.823-1.965,2.177-5.2,4.354-10.391a1.65,1.65,0,0,1,.824-.9,1.583,1.583,0,0,1,.688-.15H567.6c.107,0,.108,0,.131.111q.359,1.713.718,3.427.4,1.932.806,3.863.369,1.767.739,3.533.258,1.237.516,2.473c.007.035.012.07.02.123m-7.143-4.8c.139.03,2.813.026,2.915,0l-1.052-5.041-.032,0-1.831,5.048" transform="translate(-527.158 -4.303)" fill="#fff"/>
    <path id="Path_41521" data-name="Path 41521" d="M0,4.762l.084-.39H.2c1.928,0,3.857,0,5.785,0a1.647,1.647,0,0,1,1.675,1.4q.462,2.454.923,4.908.264,1.4.528,2.8c0,.023.014.044.03.1.03-.071.049-.116.067-.161L11.38,7.946q.682-1.723,1.364-3.447c.056-.141.037-.124.179-.124h3.511l.014.018s0,.008,0,.011c-.009.027-.017.053-.028.079L10.793,17.919h-3.7c-.013-.041-.029-.086-.04-.131L4.585,8.246c-.111-.431-.232-.86-.334-1.293a1.538,1.538,0,0,0-.885-1.087,11.576,11.576,0,0,0-1.773-.681C1.1,5.043.609,4.923.117,4.793L0,4.762" transform="translate(0 -4.13)" fill="#fff"/>
    <path id="Path_41522" data-name="Path 41522" d="M379.828,13.295l.636-2.969.418.19a7.075,7.075,0,0,0,1.727.551,6.733,6.733,0,0,0,1.859.083,2.6,2.6,0,0,0,1.031-.309,1.886,1.886,0,0,0,.331-.239,1.015,1.015,0,0,0,.055-1.457,2.238,2.238,0,0,0-.492-.4c-.314-.185-.631-.367-.956-.533a11.806,11.806,0,0,1-1.37-.779,5.1,5.1,0,0,1-1.056-.945,3.092,3.092,0,0,1-.689-1.452,3.464,3.464,0,0,1,0-1.127,4.076,4.076,0,0,1,1.938-2.872,6.212,6.212,0,0,1,2.1-.843,8.643,8.643,0,0,1,2-.189,9.365,9.365,0,0,1,3.027.569c.019.007.038.014.056.022s.011.011.026.027l-.606,2.832c-.037-.013-.067-.021-.094-.033a7.036,7.036,0,0,0-1.845-.53,5.745,5.745,0,0,0-1.526-.029,2.324,2.324,0,0,0-.911.292,1.261,1.261,0,0,0-.422.388.8.8,0,0,0,.024.966,1.644,1.644,0,0,0,.431.4c.222.145.447.284.679.413.372.207.751.4,1.124.6a7.711,7.711,0,0,1,1.137.745,4.417,4.417,0,0,1,.59.566,3.138,3.138,0,0,1,.775,2.171,4.127,4.127,0,0,1-2.1,3.622,6.241,6.241,0,0,1-1.989.769,9.647,9.647,0,0,1-2.732.175,11.179,11.179,0,0,1-2.577-.463c-.2-.062-.392-.14-.6-.215" transform="translate(-358.833 -0.001)" fill="#fff"/>
    <path id="Path_41523" data-name="Path 41523" d="M279.47,4.558l-2.895,13.536H273.1l-.01-.015s0-.007,0-.011A.584.584,0,0,1,273.1,18q1.437-6.706,2.875-13.412c0-.007.009-.013.019-.026Z" transform="translate(-257.993 -4.306)" fill="#fff"/>
  </g>
</svg>
